<svg width="97" height="34" viewBox="0 0 97 34" fill="none" xmlns="http://www.w3.org/2000/svg">
<path d="M47.728 10.552V27H45.264L44.912 24.728C43.4827 26.4347 41.6267 27.288 39.344 27.288C37.488 27.288 36.0907 26.7973 35.152 25.816C34.2134 24.8133 33.744 23.352 33.744 21.432V10.552H36.752V21.208C36.752 22.5093 36.9974 23.4587 37.488 24.056C38 24.632 38.8107 24.92 39.92 24.92C40.9227 24.92 41.84 24.696 42.672 24.248C43.504 23.7787 44.1867 23.1387 44.72 22.328V10.552H47.728ZM51.8145 18.744C51.8145 16.056 52.4865 13.976 53.8305 12.504C55.1745 11.0107 57.0732 10.264 59.5265 10.264C61.9372 10.264 63.6759 10.9893 64.7425 12.44C65.8305 13.8693 66.3745 15.9387 66.3745 18.648V19.16H54.8865C54.9292 21.016 55.3665 22.4347 56.1985 23.416C57.0305 24.3973 58.2252 24.888 59.7825 24.888C60.6359 24.888 61.4572 24.792 62.2465 24.6C63.0359 24.3867 63.9105 24.0667 64.8705 23.64L65.7345 25.688C64.6465 26.2427 63.6119 26.648 62.6305 26.904C61.6492 27.1387 60.6465 27.256 59.6225 27.256C57.1479 27.256 55.2279 26.5093 53.8625 25.016C52.4972 23.5227 51.8145 21.432 51.8145 18.744ZM59.5265 12.632C58.2679 12.632 57.2545 12.9947 56.4865 13.72C55.7399 14.4453 55.2492 15.512 55.0145 16.92H63.2065C63.0572 15.448 62.6839 14.3707 62.0865 13.688C61.4892 12.984 60.6359 12.632 59.5265 12.632ZM78.7925 10.264C80.5419 10.264 81.8752 10.7653 82.7925 11.768C83.7312 12.7707 84.2005 14.2213 84.2005 16.12V27H81.1925V16.344C81.1925 15.0427 80.9365 14.104 80.4245 13.528C79.9339 12.9307 79.1339 12.632 78.0245 12.632C77.0219 12.632 76.1045 12.8667 75.2725 13.336C74.4405 13.784 73.7579 14.4133 73.2245 15.224V27H70.2165V10.552H72.6805L73.0325 12.856C74.5045 11.128 76.4245 10.264 78.7925 10.264ZM89.407 4.344H92.351V7.128H89.407V4.344ZM89.407 10.552H92.351V27H89.407V10.552Z" fill="#777CE7"/>
<path d="M8.9494 17.103C8.9494 12.2424 10.5936 7.37124 16.428 7.37124C22.2597 7.37124 24.5894 12.2424 24.5894 17.103C24.5894 19.211 24.9204 23.12 22.44 25.84L19.04 24.48C17.68 24.48 17.8844 27.2029 17.1094 27.2C11.275 27.2 8.9494 21.9637 8.9494 17.103ZM21.528 31.4568L24.5894 34L29.24 29.24L25.9494 27.88C29.159 24.9696 29.92 21.2446 29.92 17C29.92 9.49828 26.2472 2.04004 16.4267 2.04004C6.60748 2.04004 3.5094 9.60125 3.5094 17.103C3.5094 24.6034 6.6102 31.96 16.4294 31.96C18.3021 31.96 19.9994 31.9532 21.5267 31.4541L21.528 31.4568Z" fill="#4E54E4"/>
</svg>
