<svg width="120" height="30" viewBox="0 0 120 30" fill="none" xmlns="http://www.w3.org/2000/svg">
<path d="M59.336 10.664V23H57.488L57.224 21.296C56.152 22.576 54.76 23.216 53.048 23.216C51.656 23.216 50.608 22.848 49.904 22.112C49.2 21.36 48.848 20.264 48.848 18.824V10.664H51.104V18.656C51.104 19.632 51.288 20.344 51.656 20.792C52.04 21.224 52.648 21.44 53.48 21.44C54.232 21.44 54.92 21.272 55.544 20.936C56.168 20.584 56.68 20.104 57.08 19.496V10.664H59.336ZM62.4009 16.808C62.4009 14.792 62.9049 13.232 63.9129 12.128C64.9209 11.008 66.3449 10.448 68.1849 10.448C69.9929 10.448 71.2969 10.992 72.0969 12.08C72.9129 13.152 73.3209 14.704 73.3209 16.736V17.12H64.7049C64.7369 18.512 65.0649 19.576 65.6889 20.312C66.3129 21.048 67.2089 21.416 68.3769 21.416C69.0169 21.416 69.6329 21.344 70.2249 21.2C70.8169 21.04 71.4729 20.8 72.1929 20.48L72.8409 22.016C72.0249 22.432 71.2489 22.736 70.5129 22.928C69.7769 23.104 69.0249 23.192 68.2569 23.192C66.4009 23.192 64.9609 22.632 63.9369 21.512C62.9129 20.392 62.4009 18.824 62.4009 16.808ZM68.1849 12.224C67.2409 12.224 66.4809 12.496 65.9049 13.04C65.3449 13.584 64.9769 14.384 64.8009 15.44H70.9449C70.8329 14.336 70.5529 13.528 70.1049 13.016C69.6569 12.488 69.0169 12.224 68.1849 12.224ZM82.6344 10.448C83.9464 10.448 84.9464 10.824 85.6344 11.576C86.3384 12.328 86.6904 13.416 86.6904 14.84V23H84.4344V15.008C84.4344 14.032 84.2424 13.328 83.8584 12.896C83.4904 12.448 82.8904 12.224 82.0584 12.224C81.3064 12.224 80.6184 12.4 79.9944 12.752C79.3704 13.088 78.8584 13.56 78.4584 14.168V23H76.2024V10.664H78.0504L78.3144 12.392C79.4184 11.096 80.8584 10.448 82.6344 10.448ZM90.5953 6.008H92.8033V8.096H90.5953V6.008ZM90.5953 10.664H92.8033V23H90.5953V10.664Z" fill="#777CE7"/>
<path d="M30.5804 15.5757C30.5804 12.0017 31.7894 8.42 36.0794 8.42C40.3674 8.42 42.0804 12.0017 42.0804 15.5757C42.0804 17.1257 42.3239 20 40.5 22L38 21C37 21 37.1503 23.0021 36.5804 23C32.2904 23 30.5804 19.1497 30.5804 15.5757ZM39.8294 26.13L42.0804 28L45.5 24.5L43.0804 23.5C45.4404 21.36 46 18.621 46 15.5C46 9.984 43.2994 4.5 36.0784 4.5C28.8584 4.5 26.5804 10.0597 26.5804 15.5757C26.5804 21.0907 28.8604 26.5 36.0804 26.5C37.4574 26.5 38.7054 26.495 39.8284 26.128L39.8294 26.13Z" fill="#4E54E4"/>
</svg>
